<svg width="198" height="37" viewBox="0 0 198 37" fill="none" xmlns="http://www.w3.org/2000/svg">
<g clip-path="url(#clip0_29_1222)">
<path d="M8.25195 32.2812C3.83398 32.2812 1.625 29.1172 1.625 22.7891V9.44727C1.625 3.66992 4.15625 0.78125 9.21875 0.78125C11.3047 0.78125 12.9043 1.20312 14.0176 2.04688C15.1309 2.87891 15.8984 4.09766 16.3203 5.70312C16.7422 7.30859 16.9531 9.26562 16.9531 11.5742H10.9062V8.83203C10.9062 8.16406 10.8125 7.60742 10.625 7.16211C10.4492 6.70508 10.0742 6.47656 9.5 6.47656C8.78516 6.47656 8.31055 6.7168 8.07617 7.19727C7.85352 7.67773 7.74219 8.20508 7.74219 8.7793V23.7734C7.74219 24.6055 7.84766 25.2852 8.05859 25.8125C8.28125 26.3281 8.70898 26.5859 9.3418 26.5859C9.99805 26.5859 10.4316 26.3281 10.6426 25.8125C10.8652 25.2852 10.9766 24.5938 10.9766 23.7383V19.3262H9.32422V13.9824H16.8828V32H14.4043L13.3496 29.3984C12.2715 31.3203 10.5723 32.2812 8.25195 32.2812ZM19.2383 32V5.63281H25.6367V8.56836C25.9414 7.54883 26.4805 6.75195 27.2539 6.17773C28.0273 5.60352 29 5.31641 30.1719 5.31641V10.5723C29.6562 10.5723 29.041 10.6309 28.3262 10.748C27.6113 10.8535 26.9844 11.0059 26.4453 11.2051C25.9062 11.3926 25.6367 11.6035 25.6367 11.8379V32H19.2383ZM36.5176 32.2812C35.0527 32.2812 33.9336 31.9414 33.1602 31.2617C32.3984 30.582 31.877 29.6504 31.5957 28.4668C31.3145 27.2832 31.1738 25.9414 31.1738 24.4414C31.1738 22.8359 31.332 21.5234 31.6484 20.5039C31.9648 19.4727 32.5039 18.6289 33.2656 17.9727C34.0391 17.3164 35.0996 16.7598 36.4473 16.3027L40.3496 14.9668V12.2598C40.3496 10.8418 39.8867 10.1328 38.9609 10.1328C38.1172 10.1328 37.6953 10.707 37.6953 11.8555V13.4375H31.5781C31.5664 13.3438 31.5605 13.2266 31.5605 13.0859C31.5605 12.9336 31.5605 12.7637 31.5605 12.5762C31.5605 9.95117 32.1758 8.09375 33.4062 7.00391C34.6484 5.90234 36.6113 5.35156 39.2949 5.35156C40.7012 5.35156 41.9609 5.60352 43.0742 6.10742C44.1875 6.59961 45.0664 7.33203 45.7109 8.30469C46.3672 9.27734 46.6953 10.4785 46.6953 11.9082V32H40.4375V28.8711C40.1328 29.9727 39.6289 30.8164 38.9258 31.4023C38.2227 31.9883 37.4199 32.2812 36.5176 32.2812ZM38.9961 27.3945C39.5117 27.3945 39.8633 27.1777 40.0508 26.7441C40.2383 26.3105 40.332 25.8418 40.332 25.3379V17.9902C39.4648 18.3418 38.791 18.7871 38.3105 19.3262C37.8301 19.8535 37.5898 20.6328 37.5898 21.6641V25.0566C37.5898 26.6152 38.0586 27.3945 38.9961 27.3945ZM49.1211 32V5.63281H55.4141V8.99023C55.6484 7.98242 56.082 7.12695 56.7148 6.42383C57.3594 5.70898 58.25 5.35156 59.3867 5.35156C61.2148 5.35156 62.5391 5.91406 63.3594 7.03906C64.1914 8.16406 64.6074 9.70508 64.6074 11.6621V32H58.4023V12.3125C58.4023 11.7969 58.2969 11.3223 58.0859 10.8887C57.875 10.4434 57.5117 10.2207 56.9961 10.2207C56.5156 10.2207 56.1582 10.3906 55.9238 10.7305C55.7012 11.0586 55.5605 11.4746 55.502 11.9785C55.4434 12.4707 55.4141 12.9629 55.4141 13.4551V32H49.1211ZM72.2715 32.2812C71.0527 32.2812 70.0859 32.0586 69.3711 31.6133C68.6562 31.168 68.123 30.5527 67.7715 29.7676C67.4199 28.9824 67.1855 28.0625 67.0684 27.0078C66.9629 25.9531 66.9102 24.8223 66.9102 23.6152V12.1543C66.9102 10.127 67.2676 8.48633 67.9824 7.23242C68.709 5.97852 69.9336 5.35156 71.6562 5.35156C72.9336 5.35156 73.9121 5.62695 74.5918 6.17773C75.2832 6.7168 75.8164 7.47266 76.1914 8.44531V1.0625H82.5898V32H76.1914V29.2051C75.8398 30.1543 75.3711 30.9043 74.7852 31.4551C74.2109 32.0059 73.373 32.2812 72.2715 32.2812ZM74.6797 27.3594C75.2773 27.3594 75.6758 27.1191 75.875 26.6387C76.0859 26.1582 76.1914 25.2969 76.1914 24.0547V12.9629C76.1914 12.3418 76.0977 11.7324 75.9102 11.1348C75.7344 10.5254 75.3359 10.2207 74.7148 10.2207C74.0352 10.2207 73.6074 10.5078 73.4316 11.082C73.2559 11.6562 73.168 12.2832 73.168 12.9629V24.0547C73.168 26.2578 73.6719 27.3594 74.6797 27.3594Z" fill="#F20574"/>
<path d="M93.5586 32V1.0625H101.732C103.443 1.0625 104.797 1.44336 105.793 2.20508C106.801 2.9668 107.521 4.05078 107.955 5.45703C108.389 6.86328 108.605 8.53906 108.605 10.4844C108.605 12.3594 108.424 13.9941 108.061 15.3887C107.697 16.7715 107.047 17.8438 106.109 18.6055C105.184 19.3672 103.865 19.748 102.154 19.748H99.6406V32H93.5586ZM99.6406 14.1934H99.9922C101.141 14.1934 101.844 13.8711 102.102 13.2266C102.359 12.582 102.488 11.6328 102.488 10.3789C102.488 9.20703 102.359 8.30469 102.102 7.67188C101.855 7.02734 101.264 6.70508 100.326 6.70508H99.6406V14.1934ZM110.469 32V1.0625H116.867V32H110.469ZM124.197 32.2812C122.732 32.2812 121.613 31.9414 120.84 31.2617C120.078 30.582 119.557 29.6504 119.275 28.4668C118.994 27.2832 118.854 25.9414 118.854 24.4414C118.854 22.8359 119.012 21.5234 119.328 20.5039C119.645 19.4727 120.184 18.6289 120.945 17.9727C121.719 17.3164 122.779 16.7598 124.127 16.3027L128.029 14.9668V12.2598C128.029 10.8418 127.566 10.1328 126.641 10.1328C125.797 10.1328 125.375 10.707 125.375 11.8555V13.4375H119.258C119.246 13.3438 119.24 13.2266 119.24 13.0859C119.24 12.9336 119.24 12.7637 119.24 12.5762C119.24 9.95117 119.855 8.09375 121.086 7.00391C122.328 5.90234 124.291 5.35156 126.975 5.35156C128.381 5.35156 129.641 5.60352 130.754 6.10742C131.867 6.59961 132.746 7.33203 133.391 8.30469C134.047 9.27734 134.375 10.4785 134.375 11.9082V32H128.117V28.8711C127.812 29.9727 127.309 30.8164 126.605 31.4023C125.902 31.9883 125.1 32.2812 124.197 32.2812ZM126.676 27.3945C127.191 27.3945 127.543 27.1777 127.73 26.7441C127.918 26.3105 128.012 25.8418 128.012 25.3379V17.9902C127.145 18.3418 126.471 18.7871 125.99 19.3262C125.51 19.8535 125.27 20.6328 125.27 21.6641V25.0566C125.27 26.6152 125.738 27.3945 126.676 27.3945ZM136.291 36.3945V32.4043H139.314C139.771 32.4043 140 32.2461 140 31.9297C140 31.7656 139.982 31.5957 139.947 31.4199L135.816 5.63281H141.846L143.604 25.0391L145.678 5.63281H151.742L146.855 33.3711C146.68 34.3672 146.34 35.1172 145.836 35.6211C145.344 36.1367 144.529 36.3945 143.393 36.3945H136.291ZM160.777 32.2812C158.902 32.2812 157.408 31.9297 156.295 31.2266C155.182 30.5234 154.385 29.5098 153.904 28.1855C153.424 26.8613 153.184 25.2676 153.184 23.4043V12.8047C153.184 10.3555 153.887 8.50391 155.293 7.25C156.699 5.98438 158.633 5.35156 161.094 5.35156C166.156 5.35156 168.688 7.83594 168.688 12.8047V14.7207C168.688 17.041 168.664 18.5996 168.617 19.3965H159.477V24.4941C159.477 24.9629 159.506 25.4258 159.564 25.8828C159.623 26.3281 159.752 26.6973 159.951 26.9902C160.162 27.2832 160.496 27.4297 160.953 27.4297C161.609 27.4297 162.02 27.1484 162.184 26.5859C162.348 26.0117 162.43 25.2676 162.43 24.3535V21.8223H168.688V23.3164C168.688 25.2852 168.441 26.9375 167.949 28.2734C167.469 29.5977 166.648 30.5996 165.488 31.2793C164.34 31.9473 162.77 32.2812 160.777 32.2812ZM159.441 16.2676H162.43V12.7168C162.43 11.7676 162.312 11.0879 162.078 10.6777C161.844 10.2559 161.492 10.0449 161.023 10.0449C160.52 10.0449 160.127 10.2441 159.846 10.6426C159.576 11.041 159.441 11.7324 159.441 12.7168V16.2676ZM170.973 32V5.63281H177.371V8.56836C177.676 7.54883 178.215 6.75195 178.988 6.17773C179.762 5.60352 180.734 5.31641 181.906 5.31641V10.5723C181.391 10.5723 180.775 10.6309 180.061 10.748C179.346 10.8535 178.719 11.0059 178.18 11.2051C177.641 11.3926 177.371 11.6035 177.371 11.8379V32H170.973ZM190.678 32.2812C185.475 32.2812 182.873 29.6445 182.873 24.3711V22.2793H189.201V25.373C189.201 25.9707 189.318 26.4395 189.553 26.7793C189.787 27.1191 190.162 27.2891 190.678 27.2891C191.592 27.2891 192.049 26.6035 192.049 25.2324C192.049 24.084 191.809 23.2285 191.328 22.666C190.848 22.0918 190.262 21.541 189.57 21.0137L186.213 18.4297C185.158 17.6094 184.355 16.7422 183.805 15.8281C183.254 14.9141 182.979 13.6426 182.979 12.0137C182.979 10.502 183.336 9.25391 184.051 8.26953C184.777 7.28516 185.732 6.55273 186.916 6.07227C188.111 5.5918 189.4 5.35156 190.783 5.35156C195.893 5.35156 198.447 7.90039 198.447 12.998V13.4902H191.943V12.4883C191.943 11.9609 191.85 11.4512 191.662 10.959C191.486 10.4668 191.135 10.2207 190.607 10.2207C189.717 10.2207 189.271 10.6895 189.271 11.627C189.271 12.5762 189.646 13.3203 190.396 13.8594L194.299 16.707C195.518 17.5859 196.537 18.6289 197.357 19.8359C198.189 21.043 198.605 22.6484 198.605 24.6523C198.605 27.1367 197.896 29.0293 196.479 30.3301C195.072 31.6309 193.139 32.2812 190.678 32.2812Z" fill="#F2E52E"/>
</g>
<defs>
<clipPath id="clip0_29_1222">
<rect width="198" height="37" fill="white"/>
</clipPath>
</defs>
</svg>
